<?xml version="1.0" standalone="no"?>
<!DOCTYPE svg PUBLIC "-//W3C//DTD SVG 20010904//EN"
 "http://www.w3.org/TR/2001/REC-SVG-20010904/DTD/svg10.dtd">
<svg version="1.0" xmlns="http://www.w3.org/2000/svg"
 width="700.000000pt" height="700.000000pt" viewBox="0 0 700.000000 700.000000"
 preserveAspectRatio="xMidYMid meet">
<metadata>
Created by potrace 1.14, written by Peter Selinger 2001-2017
</metadata>
<g transform="translate(0.000000,700.000000) scale(0.100000,-0.100000)"
fill="#000000" stroke="none">
<path d="M855 6993 c-210 -29 -425 -142 -577 -301 -119 -126 -201 -268 -249
-437 l-24 -80 -3 -2620 c-2 -1914 0 -2641 8 -2700 32 -223 125 -404 295 -570
104 -103 211 -171 344 -221 182 -69 -13 -65 2896 -61 l2630 2 80 23 c106 30
264 108 345 170 180 136 312 332 372 552 l23 85 0 2665 0 2665 -23 85 c-30
111 -99 255 -162 340 -56 76 -173 190 -244 239 -68 47 -218 116 -311 143 l-80
23 -2645 1 c-1455 1 -2658 -1 -2675 -3z m4892 -2109 c52 -33 53 -40 144 -727
49 -364 91 -672 94 -685 8 -34 -28 -86 -74 -107 -65 -29 -139 -8 -178 51 -12
19 -31 137 -69 422 -29 219 -61 448 -70 510 -17 107 -18 112 -34 95 -10 -10
-136 -173 -281 -363 -754 -989 -984 -1288 -1013 -1319 -38 -41 -99 -70 -146
-71 -83 0 -95 11 -672 660 -301 338 -550 615 -555 617 -4 1 -330 -421 -723
-937 -393 -516 -718 -939 -722 -939 -11 -1 -189 140 -186 148 10 24 1493 1953
1514 1970 62 48 149 48 217 0 18 -12 262 -280 542 -596 281 -315 524 -587 541
-604 26 -26 35 -29 52 -20 19 10 1165 1500 1190 1547 10 20 11 29 1 40 -9 11
-8 20 6 40 l17 27 -43 -6 c-24 -3 -255 -34 -514 -68 l-470 -62 -39 18 c-51 24
-77 67 -65 108 12 41 46 75 88 88 63 18 1354 188 1391 183 19 -3 45 -12 57
-20z"/>
</g>
</svg>
