<?xml version="1.0" standalone="no"?>
<!DOCTYPE svg PUBLIC "-//W3C//DTD SVG 20010904//EN"
 "http://www.w3.org/TR/2001/REC-SVG-20010904/DTD/svg10.dtd">
<svg version="1.0" xmlns="http://www.w3.org/2000/svg"
 width="700.000000pt" height="700.000000pt" viewBox="0 0 700.000000 700.000000"
 preserveAspectRatio="xMidYMid meet">
<metadata>
Created by potrace 1.14, written by Peter Selinger 2001-2017
</metadata>
<g transform="translate(0.000000,700.000000) scale(0.100000,-0.100000)"
fill="#000000" stroke="none">
<path d="M789 6980 c-249 -52 -482 -211 -624 -424 -61 -93 -95 -166 -133 -286
l-27 -85 -3 -2648 c-2 -2560 -2 -2651 17 -2740 79 -391 385 -697 776 -778 86
-18 194 -19 2705 -19 2522 0 2618 1 2706 19 389 80 695 386 775 776 18 86 19
194 19 2705 0 2522 -1 2618 -19 2706 -80 387 -388 695 -775 775 -88 18 -183
19 -2711 18 -2491 0 -2624 -1 -2706 -19z m5277 -290 c342 -36 590 -288 625
-634 6 -65 9 -992 7 -2631 -3 -2388 -4 -2533 -21 -2590 -90 -305 -315 -495
-621 -526 -65 -6 -992 -9 -2631 -7 -2388 3 -2533 4 -2590 21 -213 63 -369 190
-456 372 -81 169 -73 -106 -77 2730 -2 1639 1 2566 7 2631 17 172 82 314 195
429 111 113 263 188 416 204 110 12 5035 13 5146 1z"/>
<path d="M4965 4897 c-547 -74 -686 -96 -713 -112 -36 -22 -72 -86 -72 -128 0
-68 58 -139 122 -151 20 -4 231 20 523 59 269 35 490 64 491 62 2 -2 -208
-277 -1025 -1343 l-176 -230 -545 613 c-459 516 -553 617 -594 638 -75 38
-155 30 -216 -21 -36 -31 -1552 -2012 -1548 -2024 5 -12 231 -181 239 -178 4
2 236 302 516 668 280 366 602 788 717 938 115 150 213 269 216 265 4 -4 244
-276 534 -603 289 -327 547 -609 571 -627 77 -54 167 -53 240 2 17 13 320 403
675 868 583 763 646 842 652 818 4 -14 35 -237 69 -496 68 -522 67 -518 145
-556 84 -40 175 -3 209 83 16 42 14 58 -78 746 -101 752 -96 728 -159 775 -14
11 -45 21 -69 23 -24 2 -350 -38 -724 -89z"/>
</g>
</svg>
