<svg width="700" height="700" viewBox="0 0 700 700" fill="none" xmlns="http://www.w3.org/2000/svg">
<rect x="15" y="15" width="670" height="670" rx="85" fill="#EEEEEE" stroke="#111111" stroke-width="30"/>
<g filter="url(#filter0_i_1006_2)">
<path d="M284.686 284.621L272.769 275.512L284.686 284.621ZM292.394 284.335L281.186 294.304L281.186 294.304L292.394 284.335ZM408.357 414.715L419.565 404.746L419.565 404.746L408.357 414.715ZM416.064 414.431L404.152 405.314L404.152 405.314L416.064 414.431ZM582.311 214.67C581.22 206.458 573.678 200.686 565.466 201.777L431.642 219.563C423.43 220.655 417.658 228.197 418.749 236.409C419.841 244.621 427.383 250.393 435.595 249.302L554.549 233.492L570.359 352.446C571.45 360.658 578.992 366.43 587.204 365.339C595.416 364.247 601.189 356.705 600.097 348.493L582.311 214.67ZM144.917 492.172L296.603 293.731L272.769 275.512L121.083 473.953L144.917 492.172ZM281.186 294.304L397.149 424.684L419.565 404.746L303.602 274.366L281.186 294.304ZM427.975 423.548L579.353 225.763L555.53 207.53L404.152 405.314L427.975 423.548ZM397.149 424.684C405.5 434.073 420.338 433.526 427.975 423.548L404.152 405.314C407.971 400.325 415.39 400.052 419.565 404.746L397.149 424.684ZM296.603 293.731C292.786 298.724 285.363 299 281.186 294.304L303.602 274.366C295.248 264.973 280.402 265.525 272.769 275.512L296.603 293.731Z" fill="url(#paint0_linear_1006_2)"/>
</g>
<defs>
<filter id="filter0_i_1006_2" x="121.083" y="201.645" width="479.146" height="294.527" filterUnits="userSpaceOnUse" color-interpolation-filters="sRGB">
<feFlood flood-opacity="0" result="BackgroundImageFix"/>
<feBlend mode="normal" in="SourceGraphic" in2="BackgroundImageFix" result="shape"/>
<feColorMatrix in="SourceAlpha" type="matrix" values="0 0 0 0 0 0 0 0 0 0 0 0 0 0 0 0 0 0 127 0" result="hardAlpha"/>
<feOffset dy="6"/>
<feGaussianBlur stdDeviation="2"/>
<feComposite in2="hardAlpha" operator="arithmetic" k2="-1" k3="1"/>
<feColorMatrix type="matrix" values="0 0 0 0 0 0 0 0 0 0 0 0 0 0 0 0 0 0 0.25 0"/>
<feBlend mode="normal" in2="shape" result="effect1_innerShadow_1006_2"/>
</filter>
<linearGradient id="paint0_linear_1006_2" x1="222.569" y1="361.61" x2="381.476" y2="359.985" gradientUnits="userSpaceOnUse">
<stop stop-color="#FF6633" stop-opacity="0.3"/>
<stop offset="1" stop-color="#FF6633"/>
</linearGradient>
</defs>
</svg>
